<svg xmlns="http://www.w3.org/2000/svg" width="2000" height="2000" fill="none" viewBox="0 0 992 991">
  <path fill="url(#a)" d="m492.196 547.732 7.29-7.29c1.612 3.182 3.147 6.173 4.639 9.193 1.852 3.761 5.154 5.154 9.036 5.303 2.992.12 6.032.092 9.002-.276 15.16-1.852 20.605 9.249 19.198 20.259-1.329 10.465-7.404 17.43-17.218 20.923-4.476 1.591-9.185 2.595-13.838 3.627-17.593 3.904-26.05 12.856-28.475 30.767-1.195 8.789-1.457 17.734-3.006 26.453-4.716 26.495-18.985 46.181-43.473 57.728-19.728 9.305-39.986 8.379-59.559-.149-11.66-5.084-23.335-10.988-33.404-18.639-10.097-7.679-19.035-17.31-26.983-27.28-12.438-15.606-21.22-33.411-24.176-53.394-3.981-26.849 6.109-48.366 26.545-65.45 15.245-12.742 33.396-17.331 52.757-18.392 4.363-.233 8.754-.452 13.067-1.074 15.974-2.298 24.791-11.272 28.072-27.083 1.641-7.933 3.14-16.433 7.149-23.228 10.388-17.614 27.288-24.515 47.178-23.787 16.073.587 29.402 8.344 41.628 18.18.502.403.877.961 1.577 1.732-5.806 5.805-11.42 11.547-17.247 17.063-.643.615-2.708.261-3.839-.248-14.149-6.399-28.376-7.276-42.794-.919-9.589 4.228-16.292 11.653-20.782 20.683-8.528 17.112-22.147 27.167-40.39 31.678-4.886 1.209-9.666 2.892-14.453 4.469-12.05 3.96-23.186 9.666-32.577 18.279-19.056 17.486-24.932 42.256-16.058 66.616 10.635 29.19 41.5 51.23 71.255 50.763 20.612-.318 35.808-9.22 44.286-28.475 1.485-3.366 3.14-6.675 4.32-10.133 6.478-18.95 18.93-32.435 36.805-41.259 7.503-3.698 14.708-8.189 19.078-15.613 7.382-12.544 5.006-24.862-1.853-36.812-.806-1.414-1.788-2.737-2.771-4.229l.014.014Z"/>
  <path fill="url(#b)" d="M385.769 604.025c23.872-23.872 47.362-47.178 70.647-70.689 41.734-42.116 83.333-84.351 125.01-126.523 5.671-5.742 11.681-11.172 17.02-17.19 2.503-2.828 4.398-6.547 5.451-10.189 1.104-3.804 2.518-7.085 5.339-9.864 10.826-10.642 21.581-21.341 32.379-32.011.657-.657 1.428-1.202 2.305-1.937l33.34 33.34c-.948 1.075-1.768 2.107-2.694 3.047-10.529 10.557-20.966 21.192-31.679 31.551-2.001 1.931-4.971 3.458-7.7 3.897-5.417.876-9.61 3.245-13.435 7.085-45 45.113-90.086 90.156-135.149 135.206-27.592 21.807-50.021 48.946-75.498 72.938-.99.933-1.924 1.923-3.324 3.323 4.526 4.526 8.988 8.874 13.322 13.35 3.218 3.317 3.458 7.672.842 11.151-3.416 4.533-9.023 4.795-13.492.396-8.287-8.145-16.475-16.404-24.692-24.621-7.347-7.347-14.708-14.68-22.048-22.048-4.327-4.341-4.525-9.036-.615-12.918 3.72-3.692 8.478-3.458 12.629.65 3.96 3.917 7.884 7.884 12.049 12.049l-.007.007Zm10.395 10.211 71.099-71.1-4.101-4.101-71.1 71.1 4.102 4.101Zm5.253 5.254 71.213-71.213-3.868-3.868-71.212 71.213 3.867 3.868Zm5.148 5.147 71.128-71.127-3.797-3.798-71.128 71.128 3.797 3.797Zm52.107-90.714-71.397 71.396 3.401 3.401 71.185-71.184c-1.209-1.365-2.199-2.482-3.189-3.613Z"/>
  <path fill="url(#c)" d="M612.927 346.674c2.03-1.945 6.371-2.016 8.21-.135 2.079 2.122 1.937 6.053-.297 8.09-2.313 2.114-6.187 2.213-8.174.198-1.973-1.987-1.839-6.138.261-8.153Z"/>
  <path fill="url(#d)" d="M631.722 344.029c-2.121 2.051-6.131 2.015-8.11-.078-2.002-2.114-1.853-6.222.297-8.131 2.248-1.994 6.059-1.888 8.117.24 2.235 2.305 2.1 5.636-.311 7.962l.007.007Z"/>
  <path fill="url(#e)" d="M677.521 381.626c2.185 2.185 2.171 5.947-.028 8.019-2.185 2.057-6.123 2.079-8.153.035-2.121-2.121-2.022-5.869.205-7.997 2.369-2.27 5.742-2.291 7.976-.057Z"/>
  <path fill="url(#f)" d="M666.689 392.289c2.128 1.987 2.156 5.367.063 7.658-2.227 2.44-5.862 2.906-8.018 1.033-2.207-1.924-2.412-5.834-.432-8.083 2.143-2.439 6.103-2.722 8.379-.601l.008-.007Z"/>
  <path fill="url(#g)" d="M610.169 365.61c-2.156 2.171-5.96 2.256-8.11.177-2.001-1.931-2.114-5.848-.219-7.828 2.043-2.142 6.512-2.171 8.52-.049 2.086 2.199 2.001 5.494-.191 7.7Z"/>
  <path fill="url(#h)" d="M655.813 411.381c-2.121 2.079-6.024 2.051-8.124-.078-2.178-2.206-2.27-5.536-.213-7.679 2.383-2.482 5.912-2.446 8.288.071 2.199 2.326 2.213 5.551.042 7.679l.007.007Z"/>
  <defs>
    <radialGradient id="a" cx="0" cy="0" r="1" gradientTransform="rotate(135 91.372 381.216) scale(137.289 102.52499)" gradientUnits="userSpaceOnUse">
      <stop stop-color="#fff"/>
      <stop offset="1" stop-color="red"/>
    </radialGradient>
    <radialGradient id="b" cx="0" cy="0" r="1" gradientTransform="matrix(-137.70975 137.70975 -30.04638 -30.04638 522.694 489.815)" gradientUnits="userSpaceOnUse">
      <stop stop-color="#fff"/>
      <stop offset="1" stop-color="red"/>
    </radialGradient>
    <radialGradient id="c" cx="0" cy="0" r="1" gradientTransform="rotate(135 235.815 303.09) scale(5.92516 5.61309)" gradientUnits="userSpaceOnUse">
      <stop stop-color="#fff"/>
      <stop offset="1" stop-color="red"/>
    </radialGradient>
    <radialGradient id="d" cx="0" cy="0" r="1" gradientTransform="matrix(-4.07731 4.07731 -4.00835 -4.00835 627.773 339.962)" gradientUnits="userSpaceOnUse">
      <stop stop-color="#fff"/>
      <stop offset="1" stop-color="red"/>
    </radialGradient>
    <radialGradient id="e" cx="0" cy="0" r="1" gradientTransform="rotate(135 256.859 332.334) scale(5.74001 5.62681)" gradientUnits="userSpaceOnUse">
      <stop stop-color="#fff"/>
      <stop offset="1" stop-color="red"/>
    </radialGradient>
    <radialGradient id="f" cx="0" cy="0" r="1" gradientTransform="rotate(135 249.15 335.429) scale(5.8919 5.4895)" gradientUnits="userSpaceOnUse">
      <stop stop-color="#fff"/>
      <stop offset="1" stop-color="red"/>
    </radialGradient>
    <radialGradient id="g" cx="0" cy="0" r="1" gradientTransform="rotate(135 228.124 306.379) scale(5.72107 5.65058)" gradientUnits="userSpaceOnUse">
      <stop stop-color="#fff"/>
      <stop offset="1" stop-color="red"/>
    </radialGradient>
    <radialGradient id="h" cx="0" cy="0" r="1" gradientTransform="rotate(135 241.456 338.699) scale(5.54652 5.69071)" gradientUnits="userSpaceOnUse">
      <stop stop-color="#fff"/>
      <stop offset="1" stop-color="red"/>
    </radialGradient>
  </defs>
</svg>
